<?xml version="1.0" encoding="UTF-8"?>
<svg width="512" height="512" viewBox="0 0 512 512" xmlns="http://www.w3.org/2000/svg">
  <!-- Anneaux olympiques -->
  <g transform="translate(60, 200) scale(0.8)">
    <!-- Anneau bleu -->
    <circle cx="75" cy="75" r="45" fill="none" stroke="#0085C7" stroke-width="12"/>
    <!-- Anneau noir -->
    <circle cx="180" cy="75" r="45" fill="none" stroke="#000000" stroke-width="12"/>
    <!-- Anneau rouge -->
    <circle cx="285" cy="75" r="45" fill="none" stroke="#DF0024" stroke-width="12"/>
    <!-- Anneau jaune -->
    <circle cx="127.5" cy="125" r="45" fill="none" stroke="#F4C300" stroke-width="12"/>
    <!-- Anneau vert -->
    <circle cx="232.5" cy="125" r="45" fill="none" stroke="#009F3D" stroke-width="12"/>
  </g>
  
  <!-- Tour Eiffel stylisée -->
  <g transform="translate(200, 40) scale(0.5)">
    <path d="M120,20 L160,20 L180,60 L100,60 Z" fill="#0078D7"/>
    <rect x="130" y="60" width="20" height="80" fill="#0078D7"/>
    <path d="M80,140 L200,140 L220,180 L60,180 Z" fill="#0078D7"/>
    <rect x="130" y="180" width="20" height="120" fill="#0078D7"/>
    <path d="M40,300 L240,300 L260,340 L20,340 Z" fill="#0078D7"/>
    <rect x="130" y="340" width="20" height="100" fill="#0078D7"/>
  </g>
  
  <!-- Texte "Paris 2025" -->
  <text x="256" y="400" font-family="Arial, sans-serif" font-size="32" font-weight="bold" text-anchor="middle" fill="#0078D7">PARIS 2025</text>
</svg>
